# 3D model import D:\Dev\SweetHome3D\texturableBox.obj
mtllib texturableBox.mtl
g bottom_1
usemtl bottom
v 0.0 0.0 0.0
v 1.0 0.0 0.0
v 1.0 0.0 1.0
v 0.0 0.0 1.0
vt 0.0 0.0 0
vt 1.0 0.0 0
vt 1.0 1.0 0
vt 0.0 1.0 0
vn 0.0 -1.0 0.0
f 1/1/1 2/2/1 3/3/1
f 1/1/1 3/3/1 4/4/1
g top_2
usemtl top
v 0.0 1.0 0.0
v 0.0 1.0 1.0
v 1.0 1.0 1.0
v 1.0 1.0 0.0
vn 0.0 1.0 0.0
f 5/4/2 6/1/2 7/2/2
f 5/4/2 7/2/2 8/3/2
g left_3
usemtl left
vn -1.0 0.0 0.0
f 1/1/3 4/2/3 6/3/3
f 1/1/3 6/3/3 5/4/3
g right_4
usemtl right
vn 1.0 0.0 0.0
f 2/2/4 8/3/4 7/4/4
f 2/2/4 7/4/4 3/1/4
g back_5
usemtl back
vn 0.0 0.0 -1.0
f 1/2/5 5/3/5 8/4/5
f 1/2/5 8/4/5 2/1/5
g front_6
usemtl front
vn 0.0 0.0 1.0
f 3/2/6 7/3/6 6/4/6
f 3/2/6 6/4/6 4/1/6
